<svg width="256" height="109" viewBox="0 0 256 109" fill="none" xmlns="http://www.w3.org/2000/svg">
<path d="M0 61.9086H66.1695M23.6475 105.298H203.715M129.519 61.9086H256" stroke="#FF8300" stroke-width="6"/>
<path d="M0.905853 54.0985C0.628159 54.0985 0.406003 54.0013 0.239386 53.8069C0.072769 53.6125 0.0172289 53.3626 0.0727679 53.0571L5.82105 25.9819C5.87659 25.6764 6.02933 25.4265 6.27925 25.2321C6.52918 25.0377 6.79299 24.9405 7.07068 24.9405H26.5234C26.8288 24.9405 27.051 25.0377 27.1899 25.2321C27.3565 25.4265 27.412 25.6764 27.3565 25.9819L26.565 29.8974C26.5095 30.2028 26.3568 30.4527 26.1068 30.6471C25.8569 30.8415 25.5792 30.9387 25.2738 30.9387H11.9859L10.7779 36.562H23.1077C23.4132 36.562 23.6492 36.6731 23.8159 36.8953C23.9825 37.0897 24.038 37.3396 23.9825 37.645L23.191 41.269C23.1355 41.5467 22.9828 41.7966 22.7328 42.0187C22.5107 42.2131 22.2469 42.3103 21.9414 42.3103H9.56994L8.36196 48.1003H21.9414C22.2469 48.1003 22.469 48.1974 22.6079 48.3918C22.7745 48.5862 22.83 48.8361 22.7745 49.1416L21.9414 53.0571C21.8859 53.3626 21.7331 53.6125 21.483 53.8069C21.2609 54.0013 20.9971 54.0985 20.6916 54.0985H0.905853ZM37.7987 54.515C35.0217 54.515 32.7446 54.1262 30.9674 53.3487C29.2179 52.5711 27.9544 51.5437 27.1768 50.2663C26.4271 48.9611 26.1632 47.5865 26.3854 46.1425C26.4409 45.9203 26.552 45.726 26.7186 45.5593C26.913 45.365 27.1352 45.2678 27.3851 45.2678H32.7168C33.1056 45.2678 33.3833 45.3372 33.5499 45.476C33.7165 45.6149 33.8832 45.7954 34.0498 46.0175C34.1609 46.4341 34.383 46.8367 34.7162 47.2255C35.0495 47.6143 35.5077 47.9336 36.0908 48.1836C36.7018 48.4057 37.4515 48.5168 38.3402 48.5168C39.9508 48.5168 41.2421 48.2669 42.214 47.767C43.1859 47.2672 43.7552 46.5868 43.9218 45.726C44.0885 45.115 43.9774 44.6152 43.5886 44.2264C43.2276 43.8099 42.575 43.4489 41.6309 43.1434C40.7145 42.8102 39.4787 42.4769 37.9236 42.1437C35.8965 41.6994 34.2303 41.0885 32.9251 40.3109C31.62 39.5056 30.7036 38.492 30.1759 37.2702C29.6761 36.0205 29.6067 34.5349 29.9677 32.8131C30.5231 30.2584 31.8976 28.2451 34.0914 26.7733C36.2852 25.2737 39.1316 24.524 42.6306 24.524C44.4356 24.524 46.0323 24.7739 47.4208 25.2737C48.837 25.7736 50.0172 26.4401 50.9614 27.2731C51.9056 28.1062 52.5859 28.9948 53.0025 29.939C53.419 30.8554 53.5578 31.7579 53.419 32.6465C53.3912 32.8687 53.2802 33.077 53.0858 33.2713C52.8914 33.438 52.6692 33.5213 52.4193 33.5213H46.8376C46.5599 33.5213 46.31 33.4657 46.0879 33.3547C45.8935 33.2436 45.7269 33.0631 45.588 32.8131C45.588 32.2022 45.2687 31.6746 44.63 31.2303C43.9913 30.7582 43.1443 30.5222 42.0891 30.5222C40.895 30.5222 39.8953 30.7443 39.0899 31.1886C38.2846 31.6052 37.7848 32.2578 37.5904 33.1464C37.4515 33.7018 37.521 34.1877 37.7987 34.6043C38.1041 35.0208 38.6595 35.3818 39.4648 35.6873C40.2979 35.9928 41.4365 36.3121 42.8805 36.6453C45.3242 37.1174 47.2403 37.7561 48.6288 38.5614C50.0172 39.339 50.9475 40.3248 51.4196 41.5189C51.9194 42.713 51.9889 44.1709 51.6279 45.8926C51.0169 48.7251 49.5313 50.8772 47.1709 52.349C44.8382 53.793 41.7142 54.515 37.7987 54.515ZM61.4214 54.0985C61.1159 54.0985 60.8799 54.0013 60.7133 53.8069C60.5466 53.6125 60.4911 53.3626 60.5466 53.0571L65.1703 31.4802H57.7558C57.4781 31.4802 57.256 31.383 57.0893 31.1886C56.9227 30.9665 56.8672 30.7166 56.9227 30.4389L57.8808 25.9819C57.9363 25.6764 58.0752 25.4265 58.2973 25.2321C58.5472 25.0377 58.8249 24.9405 59.1304 24.9405H81.5404C81.8458 24.9405 82.068 25.0377 82.2069 25.2321C82.3735 25.4265 82.429 25.6764 82.3735 25.9819L81.4154 30.4389C81.3599 30.7166 81.2071 30.9665 80.9572 31.1886C80.7351 31.383 80.4713 31.4802 80.1658 31.4802H72.7513L68.1694 53.0571C68.1138 53.3626 67.9611 53.6125 67.7112 53.8069C67.489 54.0013 67.2252 54.0985 66.9197 54.0985H61.4214Z" fill="#131313"/>
<path d="M27.9226 96.6205C27.6449 96.6205 27.4228 96.5233 27.2562 96.3289C27.0896 96.1345 27.034 95.8846 27.0896 95.5791L32.8378 68.5038C32.8934 68.1984 33.0461 67.9485 33.296 67.7541C33.546 67.5597 33.8098 67.4625 34.0875 67.4625H53.2484C53.5539 67.4625 53.776 67.5597 53.9149 67.7541C54.0815 67.9485 54.137 68.1984 54.0815 68.5038L53.2068 72.7109C53.1512 73.0164 52.9985 73.2663 52.7486 73.4607C52.4986 73.6551 52.2209 73.7523 51.9155 73.7523H39.086L37.7947 79.8755H49.7911C50.0966 79.8755 50.3187 79.9865 50.4576 80.2087C50.6242 80.4031 50.6797 80.653 50.6242 80.9585L49.7078 85.1239C49.68 85.4016 49.5412 85.6515 49.2913 85.8737C49.0413 86.068 48.7636 86.1652 48.4582 86.1652H36.4618L34.4207 95.5791C34.3652 95.8846 34.2124 96.1345 33.9625 96.3289C33.7403 96.5233 33.4765 96.6205 33.1711 96.6205H27.9226Z" fill="#131313"/>
<path d="M53.56 100.526C52.6713 100.526 52.0418 100.155 51.6716 99.4148C51.3015 98.6741 51.3384 97.9339 51.7827 97.1932L92.9926 25.8812C93.437 25.0666 94.0665 24.3631 94.881 23.7707C95.6954 23.1042 96.7324 22.771 97.9911 22.771H115.097C116.356 22.771 117.245 23.1042 117.763 23.7707C118.355 24.3631 118.689 25.0666 118.763 25.8812L129.648 97.1932C129.871 98.2298 129.685 99.0447 129.093 99.6369C128.501 100.229 127.834 100.526 127.094 100.526H113.653C112.542 100.526 111.728 100.267 111.209 99.748C110.765 99.2295 110.469 98.6372 110.321 97.9708L108.432 86.863H78.7747L72.11 98.1929C71.7399 98.7114 71.2214 99.2295 70.5549 99.748C69.9626 100.267 69.1109 100.526 68.0001 100.526H53.56ZM86.6612 70.8677H107.322L103.212 41.5432L86.6612 70.8677ZM100.213 17.2171C99.0277 17.2171 98.5097 16.6987 98.6576 15.662C98.7318 15.0696 99.0277 14.5512 99.5462 14.1069L111.987 2.11048C112.876 1.22186 113.616 0.666467 114.209 0.444311C114.801 0.148104 115.578 0 116.541 0H132.092C132.684 0 133.129 0.18513 133.425 0.555389C133.721 0.925647 133.832 1.40699 133.758 1.9994C133.684 2.59182 133.388 3.11018 132.87 3.55449L115.541 15.662C114.801 16.1804 114.097 16.5876 113.431 16.8839C112.839 17.106 112.024 17.2171 110.987 17.2171H100.213Z" fill="#131313"/>
<path d="M152.666 101.376C150.778 101.376 149.07 101.14 147.542 100.668C146.043 100.196 144.793 99.4877 143.793 98.5435C142.794 97.5716 142.1 96.3914 141.711 95.0029C141.322 93.5867 141.28 91.9483 141.586 90.0877C141.78 88.9492 142.016 87.7273 142.294 86.4221C142.599 85.117 142.891 83.8673 143.169 82.6732C143.78 80.2573 144.724 78.2162 146.001 76.5501C147.279 74.8561 148.889 73.5787 150.833 72.7179C152.805 71.8293 155.123 71.3849 157.789 71.3849C159.567 71.3849 161.219 71.6071 162.746 72.0514C164.274 72.4957 165.565 73.1622 166.62 74.0508C167.703 74.9117 168.481 75.9669 168.953 77.2165C169.453 78.4384 169.55 79.8408 169.244 81.4236C169.189 81.6735 169.064 81.8818 168.869 82.0484C168.703 82.2151 168.494 82.2984 168.245 82.2984H162.58C162.219 82.2984 161.941 82.2289 161.746 82.0901C161.58 81.9235 161.469 81.6319 161.413 81.2154C161.441 79.7713 161.066 78.7716 160.289 78.2162C159.511 77.6609 158.484 77.3832 157.206 77.3832C155.679 77.3832 154.36 77.8136 153.249 78.6744C152.138 79.5075 151.347 80.9099 150.875 82.8815C150.292 85.1586 149.792 87.4913 149.375 89.8794C149.014 91.8511 149.181 93.2673 149.875 94.1282C150.569 94.9612 151.68 95.3778 153.207 95.3778C154.485 95.3778 155.637 95.1001 156.665 94.5447C157.692 93.9893 158.539 92.9896 159.206 91.5456C159.428 91.1291 159.65 90.8514 159.872 90.7125C160.094 90.5459 160.386 90.4626 160.747 90.4626H166.412C166.662 90.4626 166.856 90.5459 166.995 90.7125C167.134 90.8791 167.175 91.0874 167.12 91.3373C166.731 92.8924 166.12 94.2948 165.287 95.5444C164.482 96.7663 163.454 97.8215 162.205 98.7101C160.983 99.571 159.58 100.237 157.998 100.71C156.415 101.154 154.637 101.376 152.666 101.376ZM170.418 100.959C170.112 100.959 169.876 100.862 169.71 100.668C169.543 100.473 169.488 100.224 169.543 99.9181L175.333 72.8428C175.389 72.5374 175.541 72.2875 175.791 72.0931C176.041 71.8987 176.305 71.8015 176.583 71.8015H182.206C182.484 71.8015 182.706 71.8987 182.873 72.0931C183.039 72.2875 183.095 72.5374 183.039 72.8428L177.249 99.9181C177.194 100.224 177.041 100.473 176.791 100.668C176.569 100.862 176.319 100.959 176.041 100.959H170.418ZM183.923 100.959C183.645 100.959 183.423 100.862 183.257 100.668C183.09 100.473 183.034 100.224 183.09 99.9181L188.838 72.8428C188.894 72.5374 189.046 72.2875 189.296 72.0931C189.546 71.8987 189.81 71.8015 190.088 71.8015H195.586C195.892 71.8015 196.128 71.8987 196.294 72.0931C196.461 72.2875 196.516 72.5374 196.461 72.8428L191.796 94.6697H204.375C204.681 94.6697 204.903 94.7807 205.042 95.0029C205.208 95.1973 205.264 95.4472 205.208 95.7527L204.334 99.9181C204.278 100.224 204.125 100.473 203.875 100.668C203.653 100.862 203.389 100.959 203.084 100.959H183.923Z" fill="#131313"/>
<path d="M137.344 54.515C135.456 54.515 133.748 54.279 132.221 53.8069C130.721 53.3348 129.471 52.6267 128.472 51.6825C127.472 50.7106 126.778 49.5304 126.389 48.1419C126 46.7257 125.959 45.0873 126.264 43.2267C126.458 42.0882 126.694 40.8663 126.972 39.5611C127.278 38.256 127.569 37.0063 127.847 35.8123C128.458 33.3963 129.402 31.3553 130.679 29.6891C131.957 27.9951 133.567 26.7177 135.511 25.8569C137.483 24.9683 139.802 24.524 142.467 24.524C144.245 24.524 145.897 24.7461 147.424 25.1904C148.952 25.6347 150.243 26.3012 151.298 27.1898C152.381 28.0507 153.159 29.1059 153.631 30.3555C154.131 31.5774 154.228 32.9798 153.922 34.5626C153.867 34.8126 153.742 35.0208 153.548 35.1874C153.381 35.3541 153.173 35.4374 152.923 35.4374H147.258C146.897 35.4374 146.619 35.3679 146.425 35.2291C146.258 35.0625 146.147 34.7709 146.091 34.3544C146.119 32.9103 145.744 31.9106 144.967 31.3553C144.189 30.7999 143.162 30.5222 141.884 30.5222C140.357 30.5222 139.038 30.9526 137.927 31.8134C136.816 32.6465 136.025 34.0489 135.552 36.0205C134.97 38.2976 134.47 40.6303 134.053 43.0184C133.692 44.9901 133.859 46.4063 134.553 47.2672C135.247 48.1003 136.358 48.5168 137.886 48.5168C139.163 48.5168 140.315 48.2391 141.343 47.6837C142.37 47.1283 143.217 46.1286 143.884 44.6846C144.106 44.2681 144.328 43.9904 144.55 43.8515C144.772 43.6849 145.064 43.6016 145.425 43.6016H151.09C151.34 43.6016 151.534 43.6849 151.673 43.8515C151.812 44.0181 151.854 44.2264 151.798 44.4763C151.409 46.0314 150.798 47.4338 149.965 48.6834C149.16 49.9053 148.132 50.9605 146.883 51.8491C145.661 52.71 144.259 53.3765 142.676 53.8485C141.093 54.2929 139.316 54.515 137.344 54.515ZM155.096 54.0985C154.79 54.0985 154.554 54.0013 154.388 53.8069C154.221 53.6125 154.165 53.3626 154.221 53.0571L160.011 25.9819C160.066 25.6764 160.219 25.4265 160.469 25.2321C160.719 25.0377 160.983 24.9405 161.26 24.9405H166.884C167.161 24.9405 167.384 25.0377 167.55 25.2321C167.717 25.4265 167.772 25.6764 167.717 25.9819L161.927 53.0571C161.871 53.3626 161.719 53.6125 161.469 53.8069C161.247 54.0013 160.997 54.0985 160.719 54.0985H155.096ZM180.014 54.515C178.265 54.515 176.64 54.279 175.14 53.8069C173.641 53.3348 172.377 52.6267 171.35 51.6825C170.322 50.7384 169.587 49.5582 169.142 48.1419C168.726 46.7257 168.67 45.0734 168.976 43.1851C169.198 41.991 169.434 40.7969 169.684 39.6028C169.961 38.4087 170.239 37.2007 170.517 35.9789C171.433 32.23 173.086 29.3836 175.474 27.4398C177.862 25.4959 181.083 24.524 185.137 24.524C186.887 24.524 188.498 24.7739 189.969 25.2737C191.469 25.7458 192.732 26.4678 193.76 27.4398C194.815 28.4117 195.551 29.6058 195.968 31.022C196.412 32.4383 196.467 34.0905 196.134 35.9789C195.94 37.2007 195.704 38.4087 195.426 39.6028C195.176 40.7969 194.912 41.991 194.635 43.1851C193.69 46.9895 192.024 49.8358 189.636 51.7242C187.248 53.5847 184.041 54.515 180.014 54.515ZM180.556 48.5168C182.055 48.5168 183.374 48.0725 184.513 47.1839C185.651 46.2952 186.457 44.879 186.929 42.9351C187.234 41.7133 187.498 40.5608 187.72 39.4778C187.97 38.3948 188.192 37.2702 188.387 36.1038C188.748 34.16 188.581 32.7437 187.887 31.8551C187.192 30.9665 186.096 30.5222 184.596 30.5222C183.096 30.5222 181.777 30.9665 180.639 31.8551C179.528 32.7437 178.737 34.16 178.265 36.1038C177.959 37.2702 177.681 38.3948 177.431 39.4778C177.209 40.5608 176.987 41.7133 176.765 42.9351C176.432 44.879 176.598 46.2952 177.265 47.1839C177.931 48.0725 179.028 48.5168 180.556 48.5168ZM198.255 54.0985C197.977 54.0985 197.755 54.0013 197.589 53.8069C197.422 53.6125 197.366 53.3626 197.422 53.0571L203.17 25.9819C203.226 25.6764 203.365 25.4265 203.587 25.2321C203.837 25.0377 204.114 24.9405 204.42 24.9405H208.835C209.28 24.9405 209.585 25.0377 209.752 25.2321C209.918 25.4265 210.029 25.5931 210.085 25.7319L216.875 41.8521L220.249 25.9819C220.304 25.6764 220.457 25.4265 220.707 25.2321C220.957 25.0377 221.22 24.9405 221.498 24.9405H226.497C226.802 24.9405 227.024 25.0377 227.163 25.2321C227.33 25.4265 227.385 25.6764 227.33 25.9819L221.581 53.0571C221.526 53.3348 221.373 53.5847 221.123 53.8069C220.901 54.0013 220.637 54.0985 220.332 54.0985H215.916C215.472 54.0985 215.167 54.0013 215 53.8069C214.833 53.5847 214.722 53.4181 214.667 53.307L207.794 37.77L204.503 53.0571C204.448 53.3626 204.295 53.6125 204.045 53.8069C203.823 54.0013 203.559 54.0985 203.254 54.0985H198.255ZM225.57 54.0985C225.237 54.0985 225.001 53.9596 224.862 53.6819C224.723 53.4042 224.737 53.1265 224.903 52.8488L240.357 26.1068C240.524 25.8014 240.76 25.5375 241.065 25.3154C241.371 25.0655 241.759 24.9405 242.232 24.9405H248.646C249.118 24.9405 249.452 25.0655 249.646 25.3154C249.868 25.5375 249.993 25.8014 250.021 26.1068L254.103 52.8488C254.186 53.2376 254.117 53.5431 253.895 53.7652C253.673 53.9874 253.423 54.0985 253.145 54.0985H248.105C247.688 54.0985 247.383 54.0013 247.188 53.8069C247.022 53.6125 246.911 53.3903 246.855 53.1404L246.147 48.975H235.025L232.526 53.2237C232.387 53.4181 232.193 53.6125 231.943 53.8069C231.721 54.0013 231.401 54.0985 230.985 54.0985H225.57ZM237.983 42.9768H245.73L244.189 31.9801L237.983 42.9768Z" fill="#131313"/>
<path d="M0 61.9086H66.1695M23.6475 105.298H203.715M129.519 61.9086H256" stroke="#FF8300" stroke-width="6"/>
<path d="M0.905853 54.0985C0.628159 54.0985 0.406003 54.0013 0.239386 53.8069C0.072769 53.6125 0.0172289 53.3626 0.0727679 53.0571L5.82105 25.9819C5.87659 25.6764 6.02933 25.4265 6.27925 25.2321C6.52918 25.0377 6.79299 24.9405 7.07068 24.9405H26.5234C26.8288 24.9405 27.051 25.0377 27.1899 25.2321C27.3565 25.4265 27.412 25.6764 27.3565 25.9819L26.565 29.8974C26.5095 30.2028 26.3568 30.4527 26.1068 30.6471C25.8569 30.8415 25.5792 30.9387 25.2738 30.9387H11.9859L10.7779 36.562H23.1077C23.4132 36.562 23.6492 36.6731 23.8159 36.8953C23.9825 37.0897 24.038 37.3396 23.9825 37.645L23.191 41.269C23.1355 41.5467 22.9828 41.7966 22.7328 42.0187C22.5107 42.2131 22.2469 42.3103 21.9414 42.3103H9.56994L8.36196 48.1003H21.9414C22.2469 48.1003 22.469 48.1974 22.6079 48.3918C22.7745 48.5862 22.83 48.8361 22.7745 49.1416L21.9414 53.0571C21.8859 53.3626 21.7331 53.6125 21.483 53.8069C21.2609 54.0013 20.9971 54.0985 20.6916 54.0985H0.905853ZM37.7987 54.515C35.0217 54.515 32.7446 54.1262 30.9674 53.3487C29.2179 52.5711 27.9544 51.5437 27.1768 50.2663C26.4271 48.9611 26.1632 47.5865 26.3854 46.1425C26.4409 45.9203 26.552 45.726 26.7186 45.5593C26.913 45.365 27.1352 45.2678 27.3851 45.2678H32.7168C33.1056 45.2678 33.3833 45.3372 33.5499 45.476C33.7165 45.6149 33.8832 45.7954 34.0498 46.0175C34.1609 46.4341 34.383 46.8367 34.7162 47.2255C35.0495 47.6143 35.5077 47.9336 36.0908 48.1836C36.7018 48.4057 37.4515 48.5168 38.3402 48.5168C39.9508 48.5168 41.2421 48.2669 42.214 47.767C43.1859 47.2672 43.7552 46.5868 43.9218 45.726C44.0885 45.115 43.9774 44.6152 43.5886 44.2264C43.2276 43.8099 42.575 43.4489 41.6309 43.1434C40.7145 42.8102 39.4787 42.4769 37.9236 42.1437C35.8965 41.6994 34.2303 41.0885 32.9251 40.3109C31.62 39.5056 30.7036 38.492 30.1759 37.2702C29.6761 36.0205 29.6067 34.5349 29.9677 32.8131C30.5231 30.2584 31.8976 28.2451 34.0914 26.7733C36.2852 25.2737 39.1316 24.524 42.6306 24.524C44.4356 24.524 46.0323 24.7739 47.4208 25.2737C48.837 25.7736 50.0172 26.4401 50.9614 27.2731C51.9056 28.1062 52.5859 28.9948 53.0025 29.939C53.419 30.8554 53.5578 31.7579 53.419 32.6465C53.3912 32.8687 53.2802 33.077 53.0858 33.2713C52.8914 33.438 52.6692 33.5213 52.4193 33.5213H46.8376C46.5599 33.5213 46.31 33.4657 46.0879 33.3547C45.8935 33.2436 45.7269 33.0631 45.588 32.8131C45.588 32.2022 45.2687 31.6746 44.63 31.2303C43.9913 30.7582 43.1443 30.5222 42.0891 30.5222C40.895 30.5222 39.8953 30.7443 39.0899 31.1886C38.2846 31.6052 37.7848 32.2578 37.5904 33.1464C37.4515 33.7018 37.521 34.1877 37.7987 34.6043C38.1041 35.0208 38.6595 35.3818 39.4648 35.6873C40.2979 35.9928 41.4365 36.3121 42.8805 36.6453C45.3242 37.1174 47.2403 37.7561 48.6288 38.5614C50.0172 39.339 50.9475 40.3248 51.4196 41.5189C51.9194 42.713 51.9889 44.1709 51.6279 45.8926C51.0169 48.7251 49.5313 50.8772 47.1709 52.349C44.8382 53.793 41.7142 54.515 37.7987 54.515ZM61.4214 54.0985C61.1159 54.0985 60.8799 54.0013 60.7133 53.8069C60.5466 53.6125 60.4911 53.3626 60.5466 53.0571L65.1703 31.4802H57.7558C57.4781 31.4802 57.256 31.383 57.0893 31.1886C56.9227 30.9665 56.8672 30.7166 56.9227 30.4389L57.8808 25.9819C57.9363 25.6764 58.0752 25.4265 58.2973 25.2321C58.5472 25.0377 58.8249 24.9405 59.1304 24.9405H81.5404C81.8458 24.9405 82.068 25.0377 82.2069 25.2321C82.3735 25.4265 82.429 25.6764 82.3735 25.9819L81.4154 30.4389C81.3599 30.7166 81.2071 30.9665 80.9572 31.1886C80.7351 31.383 80.4713 31.4802 80.1658 31.4802H72.7513L68.1694 53.0571C68.1138 53.3626 67.9611 53.6125 67.7112 53.8069C67.489 54.0013 67.2252 54.0985 66.9197 54.0985H61.4214Z" fill="#131313"/>
<path d="M27.9226 96.6205C27.6449 96.6205 27.4228 96.5233 27.2562 96.3289C27.0896 96.1345 27.034 95.8846 27.0896 95.5791L32.8378 68.5038C32.8934 68.1984 33.0461 67.9485 33.296 67.7541C33.546 67.5597 33.8098 67.4625 34.0875 67.4625H53.2484C53.5539 67.4625 53.776 67.5597 53.9149 67.7541C54.0815 67.9485 54.137 68.1984 54.0815 68.5038L53.2068 72.7109C53.1512 73.0164 52.9985 73.2663 52.7486 73.4607C52.4986 73.6551 52.2209 73.7523 51.9155 73.7523H39.086L37.7947 79.8755H49.7911C50.0966 79.8755 50.3187 79.9865 50.4576 80.2087C50.6242 80.4031 50.6797 80.653 50.6242 80.9585L49.7078 85.1239C49.68 85.4016 49.5412 85.6515 49.2913 85.8737C49.0413 86.068 48.7636 86.1652 48.4582 86.1652H36.4618L34.4207 95.5791C34.3652 95.8846 34.2124 96.1345 33.9625 96.3289C33.7403 96.5233 33.4765 96.6205 33.1711 96.6205H27.9226Z" fill="#131313"/>
<path d="M53.1407 100.526C52.2521 100.526 51.6225 100.155 51.2524 99.4148C50.8823 98.6741 50.9192 97.9339 51.3635 97.1932L92.5734 25.8812C93.0177 25.0666 93.6473 24.3631 94.4617 23.7707C95.2761 23.1042 96.3132 22.771 97.5719 22.771H114.678C115.937 22.771 116.825 23.1042 117.344 23.7707C117.936 24.3631 118.269 25.0666 118.343 25.8812L129.229 97.1932C129.451 98.2298 129.266 99.0447 128.674 99.6369C128.081 100.229 127.415 100.526 126.674 100.526H113.234C112.123 100.526 111.309 100.267 110.79 99.748C110.346 99.2295 110.05 98.6372 109.902 97.9708L108.013 86.863H78.3554L71.6907 98.1929C71.3206 98.7114 70.8021 99.2295 70.1356 99.748C69.5434 100.267 68.6916 100.526 67.5808 100.526H53.1407ZM86.242 70.8677H106.902L102.793 41.5432L86.242 70.8677ZM99.7935 17.2171C98.6085 17.2171 98.0904 16.6987 98.2384 15.662C98.3126 15.0696 98.6085 14.5512 99.127 14.1069L111.568 2.11048C112.456 1.22186 113.197 0.666467 113.789 0.444311C114.382 0.148104 115.159 0 116.122 0H131.673C132.265 0 132.709 0.18513 133.006 0.555389C133.302 0.925647 133.413 1.40699 133.339 1.9994C133.265 2.59182 132.969 3.11018 132.45 3.55449L115.122 15.662C114.382 16.1804 113.678 16.5876 113.012 16.8839C112.419 17.106 111.605 17.2171 110.568 17.2171H99.7935Z" fill="#131313"/>
<path d="M152.666 101.376C150.778 101.376 149.07 101.14 147.542 100.668C146.043 100.196 144.793 99.4877 143.793 98.5435C142.794 97.5716 142.1 96.3914 141.711 95.0029C141.322 93.5867 141.28 91.9483 141.586 90.0877C141.78 88.9492 142.016 87.7273 142.294 86.4221C142.599 85.117 142.891 83.8673 143.169 82.6732C143.78 80.2573 144.724 78.2162 146.001 76.5501C147.279 74.8561 148.889 73.5787 150.833 72.7179C152.805 71.8293 155.123 71.3849 157.789 71.3849C159.567 71.3849 161.219 71.6071 162.746 72.0514C164.274 72.4957 165.565 73.1622 166.62 74.0508C167.703 74.9117 168.481 75.9669 168.953 77.2165C169.453 78.4384 169.55 79.8408 169.244 81.4236C169.189 81.6735 169.064 81.8818 168.869 82.0484C168.703 82.2151 168.494 82.2984 168.245 82.2984H162.58C162.219 82.2984 161.941 82.2289 161.746 82.0901C161.58 81.9235 161.469 81.6319 161.413 81.2154C161.441 79.7713 161.066 78.7716 160.289 78.2162C159.511 77.6609 158.484 77.3832 157.206 77.3832C155.679 77.3832 154.36 77.8136 153.249 78.6744C152.138 79.5075 151.347 80.9099 150.875 82.8815C150.292 85.1586 149.792 87.4913 149.375 89.8794C149.014 91.8511 149.181 93.2673 149.875 94.1282C150.569 94.9612 151.68 95.3778 153.207 95.3778C154.485 95.3778 155.637 95.1001 156.665 94.5447C157.692 93.9893 158.539 92.9896 159.206 91.5456C159.428 91.1291 159.65 90.8514 159.872 90.7125C160.094 90.5459 160.386 90.4626 160.747 90.4626H166.412C166.662 90.4626 166.856 90.5459 166.995 90.7125C167.134 90.8791 167.175 91.0874 167.12 91.3373C166.731 92.8924 166.12 94.2948 165.287 95.5444C164.482 96.7663 163.454 97.8215 162.205 98.7101C160.983 99.571 159.58 100.237 157.998 100.71C156.415 101.154 154.637 101.376 152.666 101.376ZM170.418 100.959C170.112 100.959 169.876 100.862 169.71 100.668C169.543 100.473 169.488 100.224 169.543 99.9181L175.333 72.8428C175.389 72.5374 175.541 72.2875 175.791 72.0931C176.041 71.8987 176.305 71.8015 176.583 71.8015H182.206C182.484 71.8015 182.706 71.8987 182.873 72.0931C183.039 72.2875 183.095 72.5374 183.039 72.8428L177.249 99.9181C177.194 100.224 177.041 100.473 176.791 100.668C176.569 100.862 176.319 100.959 176.041 100.959H170.418ZM183.923 100.959C183.645 100.959 183.423 100.862 183.257 100.668C183.09 100.473 183.034 100.224 183.09 99.9181L188.838 72.8428C188.894 72.5374 189.046 72.2875 189.296 72.0931C189.546 71.8987 189.81 71.8015 190.088 71.8015H195.586C195.892 71.8015 196.128 71.8987 196.294 72.0931C196.461 72.2875 196.516 72.5374 196.461 72.8428L191.796 94.6697H204.375C204.681 94.6697 204.903 94.7807 205.042 95.0029C205.208 95.1973 205.264 95.4472 205.208 95.7527L204.334 99.9181C204.278 100.224 204.125 100.473 203.875 100.668C203.653 100.862 203.389 100.959 203.084 100.959H183.923Z" fill="#131313"/>
<path d="M137.344 54.515C135.456 54.515 133.748 54.279 132.221 53.8069C130.721 53.3348 129.471 52.6267 128.472 51.6825C127.472 50.7106 126.778 49.5304 126.389 48.1419C126 46.7257 125.959 45.0873 126.264 43.2267C126.458 42.0882 126.694 40.8663 126.972 39.5611C127.278 38.256 127.569 37.0063 127.847 35.8123C128.458 33.3963 129.402 31.3553 130.679 29.6891C131.957 27.9951 133.567 26.7177 135.511 25.8569C137.483 24.9683 139.802 24.524 142.467 24.524C144.245 24.524 145.897 24.7461 147.424 25.1904C148.952 25.6347 150.243 26.3012 151.298 27.1898C152.381 28.0507 153.159 29.1059 153.631 30.3555C154.131 31.5774 154.228 32.9798 153.922 34.5626C153.867 34.8126 153.742 35.0208 153.548 35.1874C153.381 35.3541 153.173 35.4374 152.923 35.4374H147.258C146.897 35.4374 146.619 35.3679 146.425 35.2291C146.258 35.0625 146.147 34.7709 146.091 34.3544C146.119 32.9103 145.744 31.9106 144.967 31.3553C144.189 30.7999 143.162 30.5222 141.884 30.5222C140.357 30.5222 139.038 30.9526 137.927 31.8134C136.816 32.6465 136.025 34.0489 135.552 36.0205C134.97 38.2976 134.47 40.6303 134.053 43.0184C133.692 44.9901 133.859 46.4063 134.553 47.2672C135.247 48.1003 136.358 48.5168 137.886 48.5168C139.163 48.5168 140.315 48.2391 141.343 47.6837C142.37 47.1283 143.217 46.1286 143.884 44.6846C144.106 44.2681 144.328 43.9904 144.55 43.8515C144.772 43.6849 145.064 43.6016 145.425 43.6016H151.09C151.34 43.6016 151.534 43.6849 151.673 43.8515C151.812 44.0181 151.854 44.2264 151.798 44.4763C151.409 46.0314 150.798 47.4338 149.965 48.6834C149.16 49.9053 148.132 50.9605 146.883 51.8491C145.661 52.71 144.259 53.3765 142.676 53.8485C141.093 54.2929 139.316 54.515 137.344 54.515ZM155.096 54.0985C154.79 54.0985 154.554 54.0013 154.388 53.8069C154.221 53.6125 154.165 53.3626 154.221 53.0571L160.011 25.9819C160.066 25.6764 160.219 25.4265 160.469 25.2321C160.719 25.0377 160.983 24.9405 161.26 24.9405H166.884C167.161 24.9405 167.384 25.0377 167.55 25.2321C167.717 25.4265 167.772 25.6764 167.717 25.9819L161.927 53.0571C161.871 53.3626 161.719 53.6125 161.469 53.8069C161.247 54.0013 160.997 54.0985 160.719 54.0985H155.096ZM180.014 54.515C178.265 54.515 176.64 54.279 175.14 53.8069C173.641 53.3348 172.377 52.6267 171.35 51.6825C170.322 50.7384 169.587 49.5582 169.142 48.1419C168.726 46.7257 168.67 45.0734 168.976 43.1851C169.198 41.991 169.434 40.7969 169.684 39.6028C169.961 38.4087 170.239 37.2007 170.517 35.9789C171.433 32.23 173.086 29.3836 175.474 27.4398C177.862 25.4959 181.083 24.524 185.137 24.524C186.887 24.524 188.498 24.7739 189.969 25.2737C191.469 25.7458 192.732 26.4678 193.76 27.4398C194.815 28.4117 195.551 29.6058 195.968 31.022C196.412 32.4383 196.467 34.0905 196.134 35.9789C195.94 37.2007 195.704 38.4087 195.426 39.6028C195.176 40.7969 194.912 41.991 194.635 43.1851C193.69 46.9895 192.024 49.8358 189.636 51.7242C187.248 53.5847 184.041 54.515 180.014 54.515ZM180.556 48.5168C182.055 48.5168 183.374 48.0725 184.513 47.1839C185.651 46.2952 186.457 44.879 186.929 42.9351C187.234 41.7133 187.498 40.5608 187.72 39.4778C187.97 38.3948 188.192 37.2702 188.387 36.1038C188.748 34.16 188.581 32.7437 187.887 31.8551C187.192 30.9665 186.096 30.5222 184.596 30.5222C183.096 30.5222 181.777 30.9665 180.639 31.8551C179.528 32.7437 178.737 34.16 178.265 36.1038C177.959 37.2702 177.681 38.3948 177.431 39.4778C177.209 40.5608 176.987 41.7133 176.765 42.9351C176.432 44.879 176.598 46.2952 177.265 47.1839C177.931 48.0725 179.028 48.5168 180.556 48.5168ZM198.255 54.0985C197.977 54.0985 197.755 54.0013 197.589 53.8069C197.422 53.6125 197.366 53.3626 197.422 53.0571L203.17 25.9819C203.226 25.6764 203.365 25.4265 203.587 25.2321C203.837 25.0377 204.114 24.9405 204.42 24.9405H208.835C209.28 24.9405 209.585 25.0377 209.752 25.2321C209.918 25.4265 210.029 25.5931 210.085 25.7319L216.875 41.8521L220.249 25.9819C220.304 25.6764 220.457 25.4265 220.707 25.2321C220.957 25.0377 221.22 24.9405 221.498 24.9405H226.497C226.802 24.9405 227.024 25.0377 227.163 25.2321C227.33 25.4265 227.385 25.6764 227.33 25.9819L221.581 53.0571C221.526 53.3348 221.373 53.5847 221.123 53.8069C220.901 54.0013 220.637 54.0985 220.332 54.0985H215.916C215.472 54.0985 215.167 54.0013 215 53.8069C214.833 53.5847 214.722 53.4181 214.667 53.307L207.794 37.77L204.503 53.0571C204.448 53.3626 204.295 53.6125 204.045 53.8069C203.823 54.0013 203.559 54.0985 203.254 54.0985H198.255ZM225.57 54.0985C225.237 54.0985 225.001 53.9596 224.862 53.6819C224.723 53.4042 224.737 53.1265 224.903 52.8488L240.357 26.1068C240.524 25.8014 240.76 25.5375 241.065 25.3154C241.371 25.0655 241.759 24.9405 242.232 24.9405H248.646C249.118 24.9405 249.452 25.0655 249.646 25.3154C249.868 25.5375 249.993 25.8014 250.021 26.1068L254.103 52.8488C254.186 53.2376 254.117 53.5431 253.895 53.7652C253.673 53.9874 253.423 54.0985 253.145 54.0985H248.105C247.688 54.0985 247.383 54.0013 247.188 53.8069C247.022 53.6125 246.911 53.3903 246.855 53.1404L246.147 48.975H235.025L232.526 53.2237C232.387 53.4181 232.193 53.6125 231.943 53.8069C231.721 54.0013 231.401 54.0985 230.985 54.0985H225.57ZM237.983 42.9768H245.73L244.189 31.9801L237.983 42.9768Z" fill="#131313"/>
</svg>
